<?xml version="1.0" encoding="utf-8" standalone="no"?>
<!DOCTYPE svg PUBLIC "-//W3C//DTD SVG 1.1//EN"
  "http://www.w3.org/Graphics/SVG/1.1/DTD/svg11.dtd">
<!-- Created with matplotlib (http://matplotlib.org/) -->
<svg height="468pt" version="1.1" viewBox="0 0 504 468" width="504pt" xmlns="http://www.w3.org/2000/svg" xmlns:xlink="http://www.w3.org/1999/xlink">
 <defs>
  <style type="text/css">
*{stroke-linecap:square;stroke-linejoin:round;}
  </style>
 </defs>
 <g id="figure_1">
  <g id="patch_1">
   <path d="
M0 468
L504 468
L504 0
L0 0
z
" style="fill:#ffffff;"/>
  </g>
  <g id="axes_1">
   <g id="patch_2">
    <path d="
M63 421.2
L453.6 421.2
L453.6 46.8
L63 46.8
z
" style="fill:#eeeeee;"/>
   </g>
   <g id="matplotlib.axis_1">
    <g id="xtick_1">
     <g id="line2d_1">
      <path clip-path="url(#pb974bcd5cc)" d="
M63 421.2
L63 46.8" style="fill:none;stroke:#000000;stroke-dasharray:1.000000,3.000000;stroke-dashoffset:0.0;stroke-linecap:butt;stroke-width:0.5;"/>
     </g>
     <g id="line2d_2">
      <defs>
       <path d="
M0 0
L0 0" id="m080760d0c3" style="stroke:#555555;stroke-linecap:butt;stroke-width:0.5;"/>
      </defs>
      <g>
       <use style="fill:#555555;stroke:#555555;stroke-linecap:butt;stroke-width:0.5;" x="63.0" xlink:href="#m080760d0c3" y="421.2"/>
      </g>
     </g>
     <g id="line2d_3">
      <g>
       <use style="fill:#555555;stroke:#555555;stroke-linecap:butt;stroke-width:0.5;" x="63.0" xlink:href="#m080760d0c3" y="46.8"/>
      </g>
     </g>
     <g id="text_1">
      <!-- −3 -->
      <defs>
       <path d="
M47.2656 26.5156
L12.75 26.5156
Q8.89062 26.5156 8.5 26.6094
Q7.85938 26.7656 7.4375 27.3125
Q7.03125 27.875 7.03125 28.5625
Q7.03125 29.25 7.4375 29.8125
Q7.85938 30.375 8.5 30.5156
Q8.89062 30.6094 12.75 30.6094
L47.2656 30.6094
Q51.125 30.6094 51.5156 30.5156
Q52.1562 30.375 52.5625 29.8125
Q52.9844 29.25 52.9844 28.5625
Q52.9844 27.875 52.5625 27.3125
Q52.1562 26.7656 51.5156 26.6094
Q51.125 26.5156 47.2656 26.5156" id="CourierNewPSMT-2212"/>
       <path d="
M38.4219 33.3438
Q44.0938 30.8125 47.0625 26.3906
Q50.0469 21.9688 50.0469 17.1875
Q50.0469 9.8125 44.0625 4.17188
Q38.0938 -1.46875 29.1094 -1.46875
Q23.8281 -1.46875 18.1562 0.78125
Q12.5 3.03125 10.25 5.375
Q9.51562 6.15625 9.51562 7.03125
Q9.51562 7.8125 10.0781 8.39062
Q10.6406 8.98438 11.4219 8.98438
Q12.2031 8.98438 13.1875 8.25
Q20.75 2.64062 29.2031 2.64062
Q36.3281 2.64062 41.1406 7.10938
Q45.9531 11.5781 45.9531 17.0469
Q45.9531 20.7031 43.5781 24.2188
Q41.2188 27.7344 36.7656 29.75
Q32.3281 31.7812 27.7812 31.7812
Q26.3125 31.7812 25.6719 32.3438
Q25.0469 32.9062 25.0469 33.8438
Q25.0469 34.7188 25.6562 35.2969
Q26.2656 35.8906 27.4844 35.8906
L31 35.8438
Q36.5312 35.8438 40.1094 39.2031
Q43.7031 42.5781 43.7031 47.0156
Q43.7031 51.6094 39.9375 55.125
Q36.1875 58.6406 30.125 58.6406
Q25.875 58.6406 22.3125 57.1719
Q18.75 55.7188 16.6094 53.1719
Q15.8281 52.2031 15.4062 51.9844
Q14.9844 51.7656 14.4531 51.7656
Q13.625 51.7656 13.0312 52.3125
Q12.4531 52.875 12.4531 53.6562
Q12.4531 55.6094 16.7031 58.5938
Q22.6094 62.75 30.125 62.75
Q37.8906 62.75 42.875 58.0781
Q47.8594 53.4219 47.8594 46.9688
Q47.8594 42.875 45.4531 39.2031
Q43.0625 35.5469 38.4219 33.3438" id="CourierNewPSMT-33"/>
      </defs>
      <g style="fill:#555555;" transform="translate(56.818125 434.73)scale(0.12 -0.12)">
       <use xlink:href="#CourierNewPSMT-2212"/>
       <use x="60.009765625" xlink:href="#CourierNewPSMT-33"/>
      </g>
     </g>
    </g>
    <g id="xtick_2">
     <g id="line2d_4">
      <path clip-path="url(#pb974bcd5cc)" d="
M128.1 421.2
L128.1 46.8" style="fill:none;stroke:#000000;stroke-dasharray:1.000000,3.000000;stroke-dashoffset:0.0;stroke-linecap:butt;stroke-width:0.5;"/>
     </g>
     <g id="line2d_5">
      <g>
       <use style="fill:#555555;stroke:#555555;stroke-linecap:butt;stroke-width:0.5;" x="128.1" xlink:href="#m080760d0c3" y="421.2"/>
      </g>
     </g>
     <g id="line2d_6">
      <g>
       <use style="fill:#555555;stroke:#555555;stroke-linecap:butt;stroke-width:0.5;" x="128.1" xlink:href="#m080760d0c3" y="46.8"/>
      </g>
     </g>
     <g id="text_2">
      <!-- −2 -->
      <defs>
       <path d="
M12.3594 4.10938
L43.8438 4.10938
L43.8438 5.71875
Q43.8438 7.17188 44.4219 7.8125
Q45.0156 8.45312 45.9531 8.45312
Q46.8281 8.45312 47.4062 7.8125
Q48 7.17188 48 5.71875
L48 0
L8.34375 0
L8.34375 6.0625
Q20.8438 17.2812 32.6719 28.9062
Q38.1875 34.3281 40.2344 36.8594
Q42.2812 39.4062 43.0312 41.3281
Q43.7969 43.2656 43.7969 45.2188
Q43.7969 50.4844 39.5469 54.5312
Q35.2969 58.5938 29.2969 58.5938
Q23.9219 58.5938 19.7656 55.5156
Q15.625 52.4375 14.4062 47.9062
Q14.1094 46.7344 13.6719 46.3906
Q13.0938 45.9062 12.3125 45.9062
Q11.4688 45.9062 10.9062 46.4531
Q10.3594 47.0156 10.3594 47.7969
Q10.3594 50.1406 12.9219 54.1406
Q15.4844 58.1562 20 60.4531
Q24.5156 62.75 29.25 62.75
Q36.9219 62.75 42.4375 57.4219
Q47.9531 52.0938 47.9531 45.3594
Q47.9531 42.5312 47.0156 40.1562
Q46.0938 37.7969 43.875 34.9844
Q41.6562 32.1719 35.8906 26.5156
Q21.4375 12.25 12.3594 4.39062
z
" id="CourierNewPSMT-32"/>
      </defs>
      <g style="fill:#555555;" transform="translate(122.0409375 434.73)scale(0.12 -0.12)">
       <use xlink:href="#CourierNewPSMT-2212"/>
       <use x="60.009765625" xlink:href="#CourierNewPSMT-32"/>
      </g>
     </g>
    </g>
    <g id="xtick_3">
     <g id="line2d_7">
      <path clip-path="url(#pb974bcd5cc)" d="
M193.2 421.2
L193.2 46.8" style="fill:none;stroke:#000000;stroke-dasharray:1.000000,3.000000;stroke-dashoffset:0.0;stroke-linecap:butt;stroke-width:0.5;"/>
     </g>
     <g id="line2d_8">
      <g>
       <use style="fill:#555555;stroke:#555555;stroke-linecap:butt;stroke-width:0.5;" x="193.2" xlink:href="#m080760d0c3" y="421.2"/>
      </g>
     </g>
     <g id="line2d_9">
      <g>
       <use style="fill:#555555;stroke:#555555;stroke-linecap:butt;stroke-width:0.5;" x="193.2" xlink:href="#m080760d0c3" y="46.8"/>
      </g>
     </g>
     <g id="text_3">
      <!-- −1 -->
      <defs>
       <path d="
M32.0312 62.1094
L32.0312 4.10938
L46.0938 4.10938
Q47.5625 4.10938 48.1875 3.54688
Q48.8281 2.98438 48.8281 2.04688
Q48.8281 1.17188 48.1875 0.578125
Q47.5625 0 46.0938 0
L13.875 0
Q12.4062 0 11.7656 0.578125
Q11.1406 1.17188 11.1406 2.04688
Q11.1406 2.98438 11.7656 3.54688
Q12.4062 4.10938 13.875 4.10938
L27.9375 4.10938
L27.9375 56.4531
L14.5469 52.25
Q13.5781 51.9531 13.1406 51.9531
Q12.4062 51.9531 11.7969 52.5625
Q11.1875 53.1719 11.1875 54
Q11.1875 54.7344 11.6719 55.375
Q12.0625 55.7656 13.2812 56.2031
z
" id="CourierNewPSMT-31"/>
      </defs>
      <g style="fill:#555555;" transform="translate(187.09125 434.653125)scale(0.12 -0.12)">
       <use xlink:href="#CourierNewPSMT-2212"/>
       <use x="60.009765625" xlink:href="#CourierNewPSMT-31"/>
      </g>
     </g>
    </g>
    <g id="xtick_4">
     <g id="line2d_10">
      <path clip-path="url(#pb974bcd5cc)" d="
M258.3 421.2
L258.3 46.8" style="fill:none;stroke:#000000;stroke-dasharray:1.000000,3.000000;stroke-dashoffset:0.0;stroke-linecap:butt;stroke-width:0.5;"/>
     </g>
     <g id="line2d_11">
      <g>
       <use style="fill:#555555;stroke:#555555;stroke-linecap:butt;stroke-width:0.5;" x="258.3" xlink:href="#m080760d0c3" y="421.2"/>
      </g>
     </g>
     <g id="line2d_12">
      <g>
       <use style="fill:#555555;stroke:#555555;stroke-linecap:butt;stroke-width:0.5;" x="258.3" xlink:href="#m080760d0c3" y="46.8"/>
      </g>
     </g>
     <g id="text_4">
      <!-- 0 -->
      <defs>
       <path d="
M48.8281 35.6875
L48.8281 25.5312
Q48.8281 12.3125 42.5312 4.59375
Q37.5938 -1.46875 30.0781 -1.46875
Q26.4688 -1.46875 23.2656 -0.015625
Q20.0625 1.42188 17.8281 4
Q16.4062 5.60938 14.7188 9.17188
Q13.0312 12.75 12.3125 15.7188
Q11.1875 19.9219 11.1875 25.5312
L11.1875 35.6875
Q11.1875 48.9688 17.4844 56.6875
Q22.4062 62.75 29.9375 62.75
Q33.5938 62.75 36.7656 61.2969
Q39.9375 59.8594 42.1875 57.2812
Q43.6562 55.6094 45.3125 52.0469
Q46.9688 48.4844 47.75 45.5625
Q48.8281 41.3594 48.8281 35.6875
M44.7344 35.1562
Q44.7344 40.9688 43.0938 45.9688
Q41.4531 50.9844 39.4062 53.9531
Q38.1875 55.6719 36.2344 56.8906
Q33.4531 58.5938 29.9844 58.5938
Q23.0938 58.5938 19.1875 51.5625
Q15.2812 44.5312 15.2812 35.1562
L15.2812 26.125
Q15.2812 20.3125 16.9219 15.2812
Q18.5625 10.25 20.6562 7.28125
Q21.8281 5.60938 23.7812 4.39062
Q26.5625 2.64062 30.0781 2.64062
Q36.9219 2.64062 40.8281 9.6875
Q44.7344 16.75 44.7344 26.125
z
" id="CourierNewPSMT-30"/>
      </defs>
      <g style="fill:#555555;" transform="translate(256.0415625 434.73)scale(0.12 -0.12)">
       <use xlink:href="#CourierNewPSMT-30"/>
      </g>
     </g>
    </g>
    <g id="xtick_5">
     <g id="line2d_13">
      <path clip-path="url(#pb974bcd5cc)" d="
M323.4 421.2
L323.4 46.8" style="fill:none;stroke:#000000;stroke-dasharray:1.000000,3.000000;stroke-dashoffset:0.0;stroke-linecap:butt;stroke-width:0.5;"/>
     </g>
     <g id="line2d_14">
      <g>
       <use style="fill:#555555;stroke:#555555;stroke-linecap:butt;stroke-width:0.5;" x="323.4" xlink:href="#m080760d0c3" y="421.2"/>
      </g>
     </g>
     <g id="line2d_15">
      <g>
       <use style="fill:#555555;stroke:#555555;stroke-linecap:butt;stroke-width:0.5;" x="323.4" xlink:href="#m080760d0c3" y="46.8"/>
      </g>
     </g>
     <g id="text_5">
      <!-- 1 -->
      <g style="fill:#555555;" transform="translate(321.13875 434.653125)scale(0.12 -0.12)">
       <use xlink:href="#CourierNewPSMT-31"/>
      </g>
     </g>
    </g>
    <g id="xtick_6">
     <g id="line2d_16">
      <path clip-path="url(#pb974bcd5cc)" d="
M388.5 421.2
L388.5 46.8" style="fill:none;stroke:#000000;stroke-dasharray:1.000000,3.000000;stroke-dashoffset:0.0;stroke-linecap:butt;stroke-width:0.5;"/>
     </g>
     <g id="line2d_17">
      <g>
       <use style="fill:#555555;stroke:#555555;stroke-linecap:butt;stroke-width:0.5;" x="388.5" xlink:href="#m080760d0c3" y="421.2"/>
      </g>
     </g>
     <g id="line2d_18">
      <g>
       <use style="fill:#555555;stroke:#555555;stroke-linecap:butt;stroke-width:0.5;" x="388.5" xlink:href="#m080760d0c3" y="46.8"/>
      </g>
     </g>
     <g id="text_6">
      <!-- 2 -->
      <g style="fill:#555555;" transform="translate(386.120625 434.73)scale(0.12 -0.12)">
       <use xlink:href="#CourierNewPSMT-32"/>
      </g>
     </g>
    </g>
    <g id="xtick_7">
     <g id="line2d_19">
      <path clip-path="url(#pb974bcd5cc)" d="
M453.6 421.2
L453.6 46.8" style="fill:none;stroke:#000000;stroke-dasharray:1.000000,3.000000;stroke-dashoffset:0.0;stroke-linecap:butt;stroke-width:0.5;"/>
     </g>
     <g id="line2d_20">
      <g>
       <use style="fill:#555555;stroke:#555555;stroke-linecap:butt;stroke-width:0.5;" x="453.6" xlink:href="#m080760d0c3" y="421.2"/>
      </g>
     </g>
     <g id="line2d_21">
      <g>
       <use style="fill:#555555;stroke:#555555;stroke-linecap:butt;stroke-width:0.5;" x="453.6" xlink:href="#m080760d0c3" y="46.8"/>
      </g>
     </g>
     <g id="text_7">
      <!-- 3 -->
      <g style="fill:#555555;" transform="translate(451.168125 434.73)scale(0.12 -0.12)">
       <use xlink:href="#CourierNewPSMT-33"/>
      </g>
     </g>
    </g>
   </g>
   <g id="matplotlib.axis_2">
    <g id="ytick_1">
     <g id="line2d_22">
      <path clip-path="url(#pb974bcd5cc)" d="
M63 421.2
L453.6 421.2" style="fill:none;stroke:#000000;stroke-dasharray:1.000000,3.000000;stroke-dashoffset:0.0;stroke-linecap:butt;stroke-width:0.5;"/>
     </g>
     <g id="line2d_23">
      <g>
       <use style="fill:#555555;stroke:#555555;stroke-linecap:butt;stroke-width:0.5;" x="63.0" xlink:href="#m080760d0c3" y="421.2"/>
      </g>
     </g>
     <g id="line2d_24">
      <g>
       <use style="fill:#555555;stroke:#555555;stroke-linecap:butt;stroke-width:0.5;" x="453.6" xlink:href="#m080760d0c3" y="421.2"/>
      </g>
     </g>
     <g id="text_8">
      <!-- −1.0 -->
      <defs>
       <path d="
M29.1562 11.7656
L30.9062 11.7656
Q33.6406 11.7656 35.5938 9.82812
Q37.5469 7.90625 37.5469 5.17188
Q37.5469 2.34375 35.5625 0.4375
Q33.5938 -1.46875 30.9062 -1.46875
L29.1562 -1.46875
Q26.4219 -1.46875 24.4688 0.453125
Q22.5156 2.39062 22.5156 5.125
Q22.5156 7.95312 24.4844 9.85938
Q26.4688 11.7656 29.1562 11.7656" id="CourierNewPSMT-2e"/>
      </defs>
      <g style="fill:#555555;" transform="translate(30.37875 424.876875)scale(0.12 -0.12)">
       <use xlink:href="#CourierNewPSMT-2212"/>
       <use x="60.009765625" xlink:href="#CourierNewPSMT-31"/>
       <use x="120.01953125" xlink:href="#CourierNewPSMT-2e"/>
       <use x="180.029296875" xlink:href="#CourierNewPSMT-30"/>
      </g>
     </g>
    </g>
    <g id="ytick_2">
     <g id="line2d_25">
      <path clip-path="url(#pb974bcd5cc)" d="
M63 327.6
L453.6 327.6" style="fill:none;stroke:#000000;stroke-dasharray:1.000000,3.000000;stroke-dashoffset:0.0;stroke-linecap:butt;stroke-width:0.5;"/>
     </g>
     <g id="line2d_26">
      <g>
       <use style="fill:#555555;stroke:#555555;stroke-linecap:butt;stroke-width:0.5;" x="63.0" xlink:href="#m080760d0c3" y="327.6"/>
      </g>
     </g>
     <g id="line2d_27">
      <g>
       <use style="fill:#555555;stroke:#555555;stroke-linecap:butt;stroke-width:0.5;" x="453.6" xlink:href="#m080760d0c3" y="327.6"/>
      </g>
     </g>
     <g id="text_9">
      <!-- −0.5 -->
      <defs>
       <path d="
M18.7031 57.125
L18.7031 37.0625
Q22.3125 38.5781 25.625 39.3281
Q28.9531 40.0938 31.9375 40.0938
Q39.6562 40.0938 44.8438 34.6719
Q50.0469 29.25 50.0469 20.4062
Q50.0469 10.6406 44.1875 4.57812
Q38.3281 -1.46875 29.5469 -1.46875
Q23.7344 -1.46875 18.3594 1.125
Q14.5469 2.9375 11.4219 5.60938
Q9.57812 7.23438 9.57812 8.29688
Q9.57812 9.1875 10.1562 9.79688
Q10.75 10.4062 11.5312 10.4062
Q12.3594 10.4062 13.2812 9.51562
Q20.6562 2.64062 29.3438 2.64062
Q36.5312 2.64062 41.2188 7.54688
Q45.9062 12.4531 45.9062 20.6094
Q45.9062 27.5469 41.8438 31.7656
Q37.7969 35.9844 31.5469 35.9844
Q25.1406 35.9844 18.75 32.625
Q17.1875 31.8438 16.5469 31.8438
Q15.6719 31.8438 15.125 32.4219
Q14.5938 33.0156 14.5938 34.0781
L14.5938 61.2812
L43.2188 61.2812
Q44.6719 61.2812 45.3125 60.6875
Q45.9531 60.1094 45.9531 59.1875
Q45.9531 58.2969 45.3125 57.7031
Q44.6719 57.125 43.2188 57.125
z
" id="CourierNewPSMT-35"/>
      </defs>
      <g style="fill:#555555;" transform="translate(30.2325 331.276875)scale(0.12 -0.12)">
       <use xlink:href="#CourierNewPSMT-2212"/>
       <use x="60.009765625" xlink:href="#CourierNewPSMT-30"/>
       <use x="120.01953125" xlink:href="#CourierNewPSMT-2e"/>
       <use x="180.029296875" xlink:href="#CourierNewPSMT-35"/>
      </g>
     </g>
    </g>
    <g id="ytick_3">
     <g id="line2d_28">
      <path clip-path="url(#pb974bcd5cc)" d="
M63 234
L453.6 234" style="fill:none;stroke:#000000;stroke-dasharray:1.000000,3.000000;stroke-dashoffset:0.0;stroke-linecap:butt;stroke-width:0.5;"/>
     </g>
     <g id="line2d_29">
      <g>
       <use style="fill:#555555;stroke:#555555;stroke-linecap:butt;stroke-width:0.5;" x="63.0" xlink:href="#m080760d0c3" y="234.0"/>
      </g>
     </g>
     <g id="line2d_30">
      <g>
       <use style="fill:#555555;stroke:#555555;stroke-linecap:butt;stroke-width:0.5;" x="453.6" xlink:href="#m080760d0c3" y="234.0"/>
      </g>
     </g>
     <g id="text_10">
      <!-- 0.0 -->
      <g style="fill:#555555;" transform="translate(38.079375 237.676875)scale(0.12 -0.12)">
       <use xlink:href="#CourierNewPSMT-30"/>
       <use x="60.009765625" xlink:href="#CourierNewPSMT-2e"/>
       <use x="120.01953125" xlink:href="#CourierNewPSMT-30"/>
      </g>
     </g>
    </g>
    <g id="ytick_4">
     <g id="line2d_31">
      <path clip-path="url(#pb974bcd5cc)" d="
M63 140.4
L453.6 140.4" style="fill:none;stroke:#000000;stroke-dasharray:1.000000,3.000000;stroke-dashoffset:0.0;stroke-linecap:butt;stroke-width:0.5;"/>
     </g>
     <g id="line2d_32">
      <g>
       <use style="fill:#555555;stroke:#555555;stroke-linecap:butt;stroke-width:0.5;" x="63.0" xlink:href="#m080760d0c3" y="140.4"/>
      </g>
     </g>
     <g id="line2d_33">
      <g>
       <use style="fill:#555555;stroke:#555555;stroke-linecap:butt;stroke-width:0.5;" x="453.6" xlink:href="#m080760d0c3" y="140.4"/>
      </g>
     </g>
     <g id="text_11">
      <!-- 0.5 -->
      <g style="fill:#555555;" transform="translate(37.933125 144.076875)scale(0.12 -0.12)">
       <use xlink:href="#CourierNewPSMT-30"/>
       <use x="60.009765625" xlink:href="#CourierNewPSMT-2e"/>
       <use x="120.01953125" xlink:href="#CourierNewPSMT-35"/>
      </g>
     </g>
    </g>
    <g id="ytick_5">
     <g id="line2d_34">
      <path clip-path="url(#pb974bcd5cc)" d="
M63 46.8
L453.6 46.8" style="fill:none;stroke:#000000;stroke-dasharray:1.000000,3.000000;stroke-dashoffset:0.0;stroke-linecap:butt;stroke-width:0.5;"/>
     </g>
     <g id="line2d_35">
      <g>
       <use style="fill:#555555;stroke:#555555;stroke-linecap:butt;stroke-width:0.5;" x="63.0" xlink:href="#m080760d0c3" y="46.8"/>
      </g>
     </g>
     <g id="line2d_36">
      <g>
       <use style="fill:#555555;stroke:#555555;stroke-linecap:butt;stroke-width:0.5;" x="453.6" xlink:href="#m080760d0c3" y="46.8"/>
      </g>
     </g>
     <g id="text_12">
      <!-- 1.0 -->
      <g style="fill:#555555;" transform="translate(38.07375 50.476875)scale(0.12 -0.12)">
       <use xlink:href="#CourierNewPSMT-31"/>
       <use x="60.009765625" xlink:href="#CourierNewPSMT-2e"/>
       <use x="120.01953125" xlink:href="#CourierNewPSMT-30"/>
      </g>
     </g>
    </g>
   </g>
   <g id="line2d_37">
    <path clip-path="url(#pb974bcd5cc)" d="
M61.8026 419.781
L65.0107 418.422
L68.2189 416.616
L71.427 414.366
L74.6351 411.678
L77.8432 408.559
L81.0513 405.016
L84.2595 401.057
L87.4676 396.693
L90.6757 391.934
L93.8838 386.792
L97.0919 381.279
L100.3 375.408
L103.508 369.193
L108.32 359.261
L113.133 348.645
L117.945 337.403
L122.757 325.596
L127.569 313.288
L133.985 296.217
L140.402 278.541
L150.026 251.273
L172.483 187.222
L178.899 169.613
L185.315 152.629
L190.127 140.4
L194.94 128.683
L199.752 117.54
L204.564 107.034
L209.376 97.2217
L212.584 91.0918
L215.792 85.3089
L219.001 79.887
L222.209 74.8394
L225.417 70.1781
L228.625 65.9146
L231.833 62.0592
L235.041 58.6213
L238.249 55.6093
L241.457 53.0303
L244.665 50.8908
L247.874 49.1958
L251.082 47.9496
L254.29 47.1551
L255.894 46.9278
L257.498 46.8142
L259.102 46.8142
L260.706 46.9278
L262.31 47.1551
L265.518 47.9496
L268.726 49.1958
L271.935 50.8908
L275.143 53.0303
L278.351 55.6093
L281.559 58.6213
L284.767 62.0592
L287.975 65.9146
L291.183 70.1781
L294.391 74.8394
L297.599 79.887
L300.808 85.3089
L304.016 91.0918
L307.224 97.2217
L312.036 107.034
L316.848 117.54
L321.66 128.683
L326.473 140.4
L331.285 152.629
L337.701 169.613
L344.117 187.222
L352.138 209.851
L379.407 287.444
L385.823 304.839
L392.239 321.546
L397.051 333.527
L401.863 344.964
L406.676 355.796
L411.488 365.962
L416.3 375.408
L419.508 381.279
L422.716 386.792
L425.924 391.934
L429.132 396.693
L432.341 401.057
L435.549 405.016
L438.757 408.559
L441.965 411.678
L445.173 414.366
L448.381 416.616
L451.589 418.422
L454.797 419.781
L454.797 419.781" style="fill:none;stroke:#348abd;"/>
   </g>
   <g id="line2d_38">
    <path clip-path="url(#pb974bcd5cc)" d="
M61.8026 257.005
L71.427 284.12
L77.8432 301.624
L84.2595 318.473
L89.0716 330.58
L93.8838 342.159
L98.696 353.148
L103.508 363.486
L108.32 373.117
L111.528 379.118
L114.737 384.767
L117.945 390.05
L121.153 394.955
L124.361 399.468
L127.569 403.58
L130.777 407.279
L133.985 410.559
L137.193 413.409
L140.402 415.824
L143.61 417.797
L146.818 419.324
L150.026 420.401
L153.234 421.026
L154.838 421.168
L156.442 421.196
L158.046 421.111
L159.65 420.912
L161.254 420.6
L164.462 419.636
L167.671 418.221
L170.879 416.359
L174.087 414.054
L177.295 411.312
L180.503 408.139
L183.711 404.543
L186.919 400.534
L190.127 396.12
L193.336 391.312
L196.544 386.123
L199.752 380.564
L202.96 374.649
L206.168 368.393
L210.98 358.402
L215.792 347.731
L220.605 336.439
L225.417 324.588
L230.229 312.242
L236.645 295.128
L244.665 272.921
L254.29 245.524
L273.539 190.579
L281.559 168.531
L287.975 151.592
L292.787 139.403
L297.599 127.731
L302.412 116.64
L307.224 106.189
L312.036 96.437
L315.244 90.3497
L318.452 84.6112
L321.66 79.2354
L324.869 74.2353
L328.077 69.6232
L331.285 65.4102
L334.493 61.6065
L337.701 58.2214
L340.909 55.2631
L344.117 52.7387
L347.325 50.6545
L350.533 49.0154
L353.742 47.8255
L356.95 47.0876
L358.554 46.8888
L360.158 46.8036
L361.762 46.832
L363.366 46.974
L364.97 47.2296
L368.178 48.0807
L371.386 49.3832
L374.594 51.134
L377.802 53.3288
L381.011 55.9622
L384.219 59.0279
L387.427 62.5185
L390.635 66.4254
L393.843 70.7392
L397.051 75.4494
L400.259 80.5446
L403.467 86.0123
L406.676 91.8394
L409.884 98.0116
L414.696 107.884
L419.508 118.446
L424.32 129.638
L429.132 141.4
L433.945 153.669
L440.361 170.697
L446.777 188.339
L454.797 210.995
L454.797 210.995" style="fill:none;stroke:#7a68a6;"/>
   </g>
   <g id="patch_3">
    <path d="
M63 46.8
L453.6 46.8" style="fill:none;stroke:#bcbcbc;"/>
   </g>
   <g id="patch_4">
    <path d="
M453.6 421.2
L453.6 46.8" style="fill:none;stroke:#bcbcbc;"/>
   </g>
   <g id="patch_5">
    <path d="
M63 421.2
L453.6 421.2" style="fill:none;stroke:#bcbcbc;"/>
   </g>
   <g id="patch_6">
    <path d="
M63 421.2
L63 46.8" style="fill:none;stroke:#bcbcbc;"/>
   </g>
  </g>
 </g>
 <defs>
  <clipPath id="pb974bcd5cc">
   <rect height="374.4" width="390.6" x="63.0" y="46.8"/>
  </clipPath>
 </defs>
</svg>
