<?xml version="1.0" encoding="utf-8" standalone="no"?>
<!DOCTYPE svg PUBLIC "-//W3C//DTD SVG 1.1//EN"
  "http://www.w3.org/Graphics/SVG/1.1/DTD/svg11.dtd">
<!-- Created with matplotlib (http://matplotlib.org/) -->
<svg height="468pt" version="1.1" viewBox="0 0 504 468" width="504pt" xmlns="http://www.w3.org/2000/svg" xmlns:xlink="http://www.w3.org/1999/xlink">
 <defs>
  <style type="text/css">
*{stroke-linecap:square;stroke-linejoin:round;}
  </style>
 </defs>
 <g id="figure_1">
  <g id="patch_1">
   <path d="
M0 468
L504 468
L504 0
L0 0
z
" style="fill:#ffffff;"/>
  </g>
  <g id="axes_1">
   <g id="patch_2">
    <path d="
M45.7275 441.334
L488.608 441.334
L488.608 16.8131
L45.7275 16.8131
z
" style="fill:#eeeeee;"/>
   </g>
   <g id="matplotlib.axis_1">
    <g id="xtick_1">
     <g id="line2d_1">
      <path clip-path="url(#pfa94b4954c)" d="
M45.7275 441.334
L45.7275 16.8131" style="fill:none;stroke:#000000;stroke-dasharray:1.000000,3.000000;stroke-dashoffset:0.0;stroke-linecap:butt;stroke-width:0.5;"/>
     </g>
     <g id="line2d_2">
      <defs>
       <path d="
M0 0
L0 0" id="m080760d0c3" style="stroke:#555555;stroke-linecap:butt;stroke-width:0.5;"/>
      </defs>
      <g>
       <use style="fill:#555555;stroke:#555555;stroke-linecap:butt;stroke-width:0.5;" x="45.7275" xlink:href="#m080760d0c3" y="441.33375"/>
      </g>
     </g>
     <g id="line2d_3">
      <g>
       <use style="fill:#555555;stroke:#555555;stroke-linecap:butt;stroke-width:0.5;" x="45.7275" xlink:href="#m080760d0c3" y="16.813125"/>
      </g>
     </g>
     <g id="text_1">
      <!-- −3 -->
      <defs>
       <path d="
M47.2656 26.5156
L12.75 26.5156
Q8.89062 26.5156 8.5 26.6094
Q7.85938 26.7656 7.4375 27.3125
Q7.03125 27.875 7.03125 28.5625
Q7.03125 29.25 7.4375 29.8125
Q7.85938 30.375 8.5 30.5156
Q8.89062 30.6094 12.75 30.6094
L47.2656 30.6094
Q51.125 30.6094 51.5156 30.5156
Q52.1562 30.375 52.5625 29.8125
Q52.9844 29.25 52.9844 28.5625
Q52.9844 27.875 52.5625 27.3125
Q52.1562 26.7656 51.5156 26.6094
Q51.125 26.5156 47.2656 26.5156" id="CourierNewPSMT-2212"/>
       <path d="
M38.4219 33.3438
Q44.0938 30.8125 47.0625 26.3906
Q50.0469 21.9688 50.0469 17.1875
Q50.0469 9.8125 44.0625 4.17188
Q38.0938 -1.46875 29.1094 -1.46875
Q23.8281 -1.46875 18.1562 0.78125
Q12.5 3.03125 10.25 5.375
Q9.51562 6.15625 9.51562 7.03125
Q9.51562 7.8125 10.0781 8.39062
Q10.6406 8.98438 11.4219 8.98438
Q12.2031 8.98438 13.1875 8.25
Q20.75 2.64062 29.2031 2.64062
Q36.3281 2.64062 41.1406 7.10938
Q45.9531 11.5781 45.9531 17.0469
Q45.9531 20.7031 43.5781 24.2188
Q41.2188 27.7344 36.7656 29.75
Q32.3281 31.7812 27.7812 31.7812
Q26.3125 31.7812 25.6719 32.3438
Q25.0469 32.9062 25.0469 33.8438
Q25.0469 34.7188 25.6562 35.2969
Q26.2656 35.8906 27.4844 35.8906
L31 35.8438
Q36.5312 35.8438 40.1094 39.2031
Q43.7031 42.5781 43.7031 47.0156
Q43.7031 51.6094 39.9375 55.125
Q36.1875 58.6406 30.125 58.6406
Q25.875 58.6406 22.3125 57.1719
Q18.75 55.7188 16.6094 53.1719
Q15.8281 52.2031 15.4062 51.9844
Q14.9844 51.7656 14.4531 51.7656
Q13.625 51.7656 13.0312 52.3125
Q12.4531 52.875 12.4531 53.6562
Q12.4531 55.6094 16.7031 58.5938
Q22.6094 62.75 30.125 62.75
Q37.8906 62.75 42.875 58.0781
Q47.8594 53.4219 47.8594 46.9688
Q47.8594 42.875 45.4531 39.2031
Q43.0625 35.5469 38.4219 33.3438" id="CourierNewPSMT-33"/>
      </defs>
      <g style="fill:#555555;" transform="translate(39.545625 454.86375)scale(0.12 -0.12)">
       <use xlink:href="#CourierNewPSMT-2212"/>
       <use x="60.009765625" xlink:href="#CourierNewPSMT-33"/>
      </g>
     </g>
    </g>
    <g id="xtick_2">
     <g id="line2d_4">
      <path clip-path="url(#pfa94b4954c)" d="
M119.541 441.334
L119.541 16.8131" style="fill:none;stroke:#000000;stroke-dasharray:1.000000,3.000000;stroke-dashoffset:0.0;stroke-linecap:butt;stroke-width:0.5;"/>
     </g>
     <g id="line2d_5">
      <g>
       <use style="fill:#555555;stroke:#555555;stroke-linecap:butt;stroke-width:0.5;" x="119.5409375" xlink:href="#m080760d0c3" y="441.33375"/>
      </g>
     </g>
     <g id="line2d_6">
      <g>
       <use style="fill:#555555;stroke:#555555;stroke-linecap:butt;stroke-width:0.5;" x="119.5409375" xlink:href="#m080760d0c3" y="16.813125"/>
      </g>
     </g>
     <g id="text_2">
      <!-- −2 -->
      <defs>
       <path d="
M12.3594 4.10938
L43.8438 4.10938
L43.8438 5.71875
Q43.8438 7.17188 44.4219 7.8125
Q45.0156 8.45312 45.9531 8.45312
Q46.8281 8.45312 47.4062 7.8125
Q48 7.17188 48 5.71875
L48 0
L8.34375 0
L8.34375 6.0625
Q20.8438 17.2812 32.6719 28.9062
Q38.1875 34.3281 40.2344 36.8594
Q42.2812 39.4062 43.0312 41.3281
Q43.7969 43.2656 43.7969 45.2188
Q43.7969 50.4844 39.5469 54.5312
Q35.2969 58.5938 29.2969 58.5938
Q23.9219 58.5938 19.7656 55.5156
Q15.625 52.4375 14.4062 47.9062
Q14.1094 46.7344 13.6719 46.3906
Q13.0938 45.9062 12.3125 45.9062
Q11.4688 45.9062 10.9062 46.4531
Q10.3594 47.0156 10.3594 47.7969
Q10.3594 50.1406 12.9219 54.1406
Q15.4844 58.1562 20 60.4531
Q24.5156 62.75 29.25 62.75
Q36.9219 62.75 42.4375 57.4219
Q47.9531 52.0938 47.9531 45.3594
Q47.9531 42.5312 47.0156 40.1562
Q46.0938 37.7969 43.875 34.9844
Q41.6562 32.1719 35.8906 26.5156
Q21.4375 12.25 12.3594 4.39062
z
" id="CourierNewPSMT-32"/>
      </defs>
      <g style="fill:#555555;" transform="translate(113.481875 454.86375)scale(0.12 -0.12)">
       <use xlink:href="#CourierNewPSMT-2212"/>
       <use x="60.009765625" xlink:href="#CourierNewPSMT-32"/>
      </g>
     </g>
    </g>
    <g id="xtick_3">
     <g id="line2d_7">
      <path clip-path="url(#pfa94b4954c)" d="
M193.354 441.334
L193.354 16.8131" style="fill:none;stroke:#000000;stroke-dasharray:1.000000,3.000000;stroke-dashoffset:0.0;stroke-linecap:butt;stroke-width:0.5;"/>
     </g>
     <g id="line2d_8">
      <g>
       <use style="fill:#555555;stroke:#555555;stroke-linecap:butt;stroke-width:0.5;" x="193.354375" xlink:href="#m080760d0c3" y="441.33375"/>
      </g>
     </g>
     <g id="line2d_9">
      <g>
       <use style="fill:#555555;stroke:#555555;stroke-linecap:butt;stroke-width:0.5;" x="193.354375" xlink:href="#m080760d0c3" y="16.813125"/>
      </g>
     </g>
     <g id="text_3">
      <!-- −1 -->
      <defs>
       <path d="
M32.0312 62.1094
L32.0312 4.10938
L46.0938 4.10938
Q47.5625 4.10938 48.1875 3.54688
Q48.8281 2.98438 48.8281 2.04688
Q48.8281 1.17188 48.1875 0.578125
Q47.5625 0 46.0938 0
L13.875 0
Q12.4062 0 11.7656 0.578125
Q11.1406 1.17188 11.1406 2.04688
Q11.1406 2.98438 11.7656 3.54688
Q12.4062 4.10938 13.875 4.10938
L27.9375 4.10938
L27.9375 56.4531
L14.5469 52.25
Q13.5781 51.9531 13.1406 51.9531
Q12.4062 51.9531 11.7969 52.5625
Q11.1875 53.1719 11.1875 54
Q11.1875 54.7344 11.6719 55.375
Q12.0625 55.7656 13.2812 56.2031
z
" id="CourierNewPSMT-31"/>
      </defs>
      <g style="fill:#555555;" transform="translate(187.245625 454.786875)scale(0.12 -0.12)">
       <use xlink:href="#CourierNewPSMT-2212"/>
       <use x="60.009765625" xlink:href="#CourierNewPSMT-31"/>
      </g>
     </g>
    </g>
    <g id="xtick_4">
     <g id="line2d_10">
      <path clip-path="url(#pfa94b4954c)" d="
M267.168 441.334
L267.168 16.8131" style="fill:none;stroke:#000000;stroke-dasharray:1.000000,3.000000;stroke-dashoffset:0.0;stroke-linecap:butt;stroke-width:0.5;"/>
     </g>
     <g id="line2d_11">
      <g>
       <use style="fill:#555555;stroke:#555555;stroke-linecap:butt;stroke-width:0.5;" x="267.1678125" xlink:href="#m080760d0c3" y="441.33375"/>
      </g>
     </g>
     <g id="line2d_12">
      <g>
       <use style="fill:#555555;stroke:#555555;stroke-linecap:butt;stroke-width:0.5;" x="267.1678125" xlink:href="#m080760d0c3" y="16.813125"/>
      </g>
     </g>
     <g id="text_4">
      <!-- 0 -->
      <defs>
       <path d="
M48.8281 35.6875
L48.8281 25.5312
Q48.8281 12.3125 42.5312 4.59375
Q37.5938 -1.46875 30.0781 -1.46875
Q26.4688 -1.46875 23.2656 -0.015625
Q20.0625 1.42188 17.8281 4
Q16.4062 5.60938 14.7188 9.17188
Q13.0312 12.75 12.3125 15.7188
Q11.1875 19.9219 11.1875 25.5312
L11.1875 35.6875
Q11.1875 48.9688 17.4844 56.6875
Q22.4062 62.75 29.9375 62.75
Q33.5938 62.75 36.7656 61.2969
Q39.9375 59.8594 42.1875 57.2812
Q43.6562 55.6094 45.3125 52.0469
Q46.9688 48.4844 47.75 45.5625
Q48.8281 41.3594 48.8281 35.6875
M44.7344 35.1562
Q44.7344 40.9688 43.0938 45.9688
Q41.4531 50.9844 39.4062 53.9531
Q38.1875 55.6719 36.2344 56.8906
Q33.4531 58.5938 29.9844 58.5938
Q23.0938 58.5938 19.1875 51.5625
Q15.2812 44.5312 15.2812 35.1562
L15.2812 26.125
Q15.2812 20.3125 16.9219 15.2812
Q18.5625 10.25 20.6562 7.28125
Q21.8281 5.60938 23.7812 4.39062
Q26.5625 2.64062 30.0781 2.64062
Q36.9219 2.64062 40.8281 9.6875
Q44.7344 16.75 44.7344 26.125
z
" id="CourierNewPSMT-30"/>
      </defs>
      <g style="fill:#555555;" transform="translate(264.909375 454.86375)scale(0.12 -0.12)">
       <use xlink:href="#CourierNewPSMT-30"/>
      </g>
     </g>
    </g>
    <g id="xtick_5">
     <g id="line2d_13">
      <path clip-path="url(#pfa94b4954c)" d="
M340.981 441.334
L340.981 16.8131" style="fill:none;stroke:#000000;stroke-dasharray:1.000000,3.000000;stroke-dashoffset:0.0;stroke-linecap:butt;stroke-width:0.5;"/>
     </g>
     <g id="line2d_14">
      <g>
       <use style="fill:#555555;stroke:#555555;stroke-linecap:butt;stroke-width:0.5;" x="340.98125" xlink:href="#m080760d0c3" y="441.33375"/>
      </g>
     </g>
     <g id="line2d_15">
      <g>
       <use style="fill:#555555;stroke:#555555;stroke-linecap:butt;stroke-width:0.5;" x="340.98125" xlink:href="#m080760d0c3" y="16.813125"/>
      </g>
     </g>
     <g id="text_5">
      <!-- 1 -->
      <g style="fill:#555555;" transform="translate(338.72 454.786875)scale(0.12 -0.12)">
       <use xlink:href="#CourierNewPSMT-31"/>
      </g>
     </g>
    </g>
    <g id="xtick_6">
     <g id="line2d_16">
      <path clip-path="url(#pfa94b4954c)" d="
M414.795 441.334
L414.795 16.8131" style="fill:none;stroke:#000000;stroke-dasharray:1.000000,3.000000;stroke-dashoffset:0.0;stroke-linecap:butt;stroke-width:0.5;"/>
     </g>
     <g id="line2d_17">
      <g>
       <use style="fill:#555555;stroke:#555555;stroke-linecap:butt;stroke-width:0.5;" x="414.7946875" xlink:href="#m080760d0c3" y="441.33375"/>
      </g>
     </g>
     <g id="line2d_18">
      <g>
       <use style="fill:#555555;stroke:#555555;stroke-linecap:butt;stroke-width:0.5;" x="414.7946875" xlink:href="#m080760d0c3" y="16.813125"/>
      </g>
     </g>
     <g id="text_6">
      <!-- 2 -->
      <g style="fill:#555555;" transform="translate(412.4153125 454.86375)scale(0.12 -0.12)">
       <use xlink:href="#CourierNewPSMT-32"/>
      </g>
     </g>
    </g>
    <g id="xtick_7">
     <g id="line2d_19">
      <path clip-path="url(#pfa94b4954c)" d="
M488.608 441.334
L488.608 16.8131" style="fill:none;stroke:#000000;stroke-dasharray:1.000000,3.000000;stroke-dashoffset:0.0;stroke-linecap:butt;stroke-width:0.5;"/>
     </g>
     <g id="line2d_20">
      <g>
       <use style="fill:#555555;stroke:#555555;stroke-linecap:butt;stroke-width:0.5;" x="488.608125" xlink:href="#m080760d0c3" y="441.33375"/>
      </g>
     </g>
     <g id="line2d_21">
      <g>
       <use style="fill:#555555;stroke:#555555;stroke-linecap:butt;stroke-width:0.5;" x="488.608125" xlink:href="#m080760d0c3" y="16.813125"/>
      </g>
     </g>
     <g id="text_7">
      <!-- 3 -->
      <g style="fill:#555555;" transform="translate(486.17625 454.86375)scale(0.12 -0.12)">
       <use xlink:href="#CourierNewPSMT-33"/>
      </g>
     </g>
    </g>
   </g>
   <g id="matplotlib.axis_2">
    <g id="ytick_1">
     <g id="line2d_22">
      <path clip-path="url(#pfa94b4954c)" d="
M45.7275 441.334
L488.608 441.334" style="fill:none;stroke:#000000;stroke-dasharray:1.000000,3.000000;stroke-dashoffset:0.0;stroke-linecap:butt;stroke-width:0.5;"/>
     </g>
     <g id="line2d_23">
      <g>
       <use style="fill:#555555;stroke:#555555;stroke-linecap:butt;stroke-width:0.5;" x="45.7275" xlink:href="#m080760d0c3" y="441.33375"/>
      </g>
     </g>
     <g id="line2d_24">
      <g>
       <use style="fill:#555555;stroke:#555555;stroke-linecap:butt;stroke-width:0.5;" x="488.608125" xlink:href="#m080760d0c3" y="441.33375"/>
      </g>
     </g>
     <g id="text_8">
      <!-- −1.0 -->
      <defs>
       <path d="
M29.1562 11.7656
L30.9062 11.7656
Q33.6406 11.7656 35.5938 9.82812
Q37.5469 7.90625 37.5469 5.17188
Q37.5469 2.34375 35.5625 0.4375
Q33.5938 -1.46875 30.9062 -1.46875
L29.1562 -1.46875
Q26.4219 -1.46875 24.4688 0.453125
Q22.5156 2.39062 22.5156 5.125
Q22.5156 7.95312 24.4844 9.85938
Q26.4688 11.7656 29.1562 11.7656" id="CourierNewPSMT-2e"/>
      </defs>
      <g style="fill:#555555;" transform="translate(13.10625 445.010625)scale(0.12 -0.12)">
       <use xlink:href="#CourierNewPSMT-2212"/>
       <use x="60.009765625" xlink:href="#CourierNewPSMT-31"/>
       <use x="120.01953125" xlink:href="#CourierNewPSMT-2e"/>
       <use x="180.029296875" xlink:href="#CourierNewPSMT-30"/>
      </g>
     </g>
    </g>
    <g id="ytick_2">
     <g id="line2d_25">
      <path clip-path="url(#pfa94b4954c)" d="
M45.7275 335.204
L488.608 335.204" style="fill:none;stroke:#000000;stroke-dasharray:1.000000,3.000000;stroke-dashoffset:0.0;stroke-linecap:butt;stroke-width:0.5;"/>
     </g>
     <g id="line2d_26">
      <g>
       <use style="fill:#555555;stroke:#555555;stroke-linecap:butt;stroke-width:0.5;" x="45.7275" xlink:href="#m080760d0c3" y="335.20359375"/>
      </g>
     </g>
     <g id="line2d_27">
      <g>
       <use style="fill:#555555;stroke:#555555;stroke-linecap:butt;stroke-width:0.5;" x="488.608125" xlink:href="#m080760d0c3" y="335.20359375"/>
      </g>
     </g>
     <g id="text_9">
      <!-- −0.5 -->
      <defs>
       <path d="
M18.7031 57.125
L18.7031 37.0625
Q22.3125 38.5781 25.625 39.3281
Q28.9531 40.0938 31.9375 40.0938
Q39.6562 40.0938 44.8438 34.6719
Q50.0469 29.25 50.0469 20.4062
Q50.0469 10.6406 44.1875 4.57812
Q38.3281 -1.46875 29.5469 -1.46875
Q23.7344 -1.46875 18.3594 1.125
Q14.5469 2.9375 11.4219 5.60938
Q9.57812 7.23438 9.57812 8.29688
Q9.57812 9.1875 10.1562 9.79688
Q10.75 10.4062 11.5312 10.4062
Q12.3594 10.4062 13.2812 9.51562
Q20.6562 2.64062 29.3438 2.64062
Q36.5312 2.64062 41.2188 7.54688
Q45.9062 12.4531 45.9062 20.6094
Q45.9062 27.5469 41.8438 31.7656
Q37.7969 35.9844 31.5469 35.9844
Q25.1406 35.9844 18.75 32.625
Q17.1875 31.8438 16.5469 31.8438
Q15.6719 31.8438 15.125 32.4219
Q14.5938 33.0156 14.5938 34.0781
L14.5938 61.2812
L43.2188 61.2812
Q44.6719 61.2812 45.3125 60.6875
Q45.9531 60.1094 45.9531 59.1875
Q45.9531 58.2969 45.3125 57.7031
Q44.6719 57.125 43.2188 57.125
z
" id="CourierNewPSMT-35"/>
      </defs>
      <g style="fill:#555555;" transform="translate(12.96 338.88046875)scale(0.12 -0.12)">
       <use xlink:href="#CourierNewPSMT-2212"/>
       <use x="60.009765625" xlink:href="#CourierNewPSMT-30"/>
       <use x="120.01953125" xlink:href="#CourierNewPSMT-2e"/>
       <use x="180.029296875" xlink:href="#CourierNewPSMT-35"/>
      </g>
     </g>
    </g>
    <g id="ytick_3">
     <g id="line2d_28">
      <path clip-path="url(#pfa94b4954c)" d="
M45.7275 229.073
L488.608 229.073" style="fill:none;stroke:#000000;stroke-dasharray:1.000000,3.000000;stroke-dashoffset:0.0;stroke-linecap:butt;stroke-width:0.5;"/>
     </g>
     <g id="line2d_29">
      <g>
       <use style="fill:#555555;stroke:#555555;stroke-linecap:butt;stroke-width:0.5;" x="45.7275" xlink:href="#m080760d0c3" y="229.0734375"/>
      </g>
     </g>
     <g id="line2d_30">
      <g>
       <use style="fill:#555555;stroke:#555555;stroke-linecap:butt;stroke-width:0.5;" x="488.608125" xlink:href="#m080760d0c3" y="229.0734375"/>
      </g>
     </g>
     <g id="text_10">
      <!-- 0.0 -->
      <g style="fill:#555555;" transform="translate(20.806875 232.7503125)scale(0.12 -0.12)">
       <use xlink:href="#CourierNewPSMT-30"/>
       <use x="60.009765625" xlink:href="#CourierNewPSMT-2e"/>
       <use x="120.01953125" xlink:href="#CourierNewPSMT-30"/>
      </g>
     </g>
    </g>
    <g id="ytick_4">
     <g id="line2d_31">
      <path clip-path="url(#pfa94b4954c)" d="
M45.7275 122.943
L488.608 122.943" style="fill:none;stroke:#000000;stroke-dasharray:1.000000,3.000000;stroke-dashoffset:0.0;stroke-linecap:butt;stroke-width:0.5;"/>
     </g>
     <g id="line2d_32">
      <g>
       <use style="fill:#555555;stroke:#555555;stroke-linecap:butt;stroke-width:0.5;" x="45.7275" xlink:href="#m080760d0c3" y="122.94328125"/>
      </g>
     </g>
     <g id="line2d_33">
      <g>
       <use style="fill:#555555;stroke:#555555;stroke-linecap:butt;stroke-width:0.5;" x="488.608125" xlink:href="#m080760d0c3" y="122.94328125"/>
      </g>
     </g>
     <g id="text_11">
      <!-- 0.5 -->
      <g style="fill:#555555;" transform="translate(20.660625 126.62015625)scale(0.12 -0.12)">
       <use xlink:href="#CourierNewPSMT-30"/>
       <use x="60.009765625" xlink:href="#CourierNewPSMT-2e"/>
       <use x="120.01953125" xlink:href="#CourierNewPSMT-35"/>
      </g>
     </g>
    </g>
    <g id="ytick_5">
     <g id="line2d_34">
      <path clip-path="url(#pfa94b4954c)" d="
M45.7275 16.8131
L488.608 16.8131" style="fill:none;stroke:#000000;stroke-dasharray:1.000000,3.000000;stroke-dashoffset:0.0;stroke-linecap:butt;stroke-width:0.5;"/>
     </g>
     <g id="line2d_35">
      <g>
       <use style="fill:#555555;stroke:#555555;stroke-linecap:butt;stroke-width:0.5;" x="45.7275" xlink:href="#m080760d0c3" y="16.813125"/>
      </g>
     </g>
     <g id="line2d_36">
      <g>
       <use style="fill:#555555;stroke:#555555;stroke-linecap:butt;stroke-width:0.5;" x="488.608125" xlink:href="#m080760d0c3" y="16.813125"/>
      </g>
     </g>
     <g id="text_12">
      <!-- 1.0 -->
      <g style="fill:#555555;" transform="translate(20.80125 20.49)scale(0.12 -0.12)">
       <use xlink:href="#CourierNewPSMT-31"/>
       <use x="60.009765625" xlink:href="#CourierNewPSMT-2e"/>
       <use x="120.01953125" xlink:href="#CourierNewPSMT-30"/>
      </g>
     </g>
    </g>
   </g>
   <g id="line2d_37">
    <path clip-path="url(#pfa94b4954c)" d="
M44.3699 439.725
L46.1886 439.018
L48.0074 438.184
L49.8261 437.223
L53.4636 434.923
L57.1012 432.123
L60.7387 428.829
L64.3762 425.051
L68.0137 420.797
L71.6512 416.077
L75.2888 410.904
L78.9263 405.289
L82.5638 399.246
L86.2013 392.789
L89.8388 385.936
L93.4763 378.701
L97.1139 371.103
L102.57 359.066
L108.026 346.319
L113.483 332.931
L118.939 318.976
L126.214 299.619
L133.489 279.578
L142.583 253.86
L169.864 176.033
L177.139 156.067
L184.414 136.809
L189.871 122.943
L195.327 109.657
L200.783 97.0236
L206.239 85.111
L209.877 77.6023
L213.514 70.4614
L217.152 63.7056
L220.789 57.3512
L224.427 51.4139
L228.064 45.9079
L231.702 40.8466
L235.34 36.2423
L238.977 32.1062
L242.615 28.4484
L246.252 25.2777
L249.89 22.6018
L253.527 20.4273
L255.346 19.5297
L257.165 18.7593
L258.983 18.1166
L260.802 17.602
L262.621 17.2157
L264.44 16.9581
L266.258 16.8292
L268.077 16.8292
L269.896 16.9581
L271.715 17.2157
L273.533 17.602
L275.352 18.1166
L277.171 18.7593
L278.99 19.5297
L280.809 20.4273
L284.446 22.6018
L288.084 25.2777
L291.721 28.4484
L295.359 32.1062
L298.996 36.2423
L302.634 40.8466
L306.271 45.9079
L309.909 51.4139
L313.546 57.3512
L317.184 63.7056
L320.821 70.4614
L324.459 77.6023
L328.096 85.111
L333.553 97.0236
L339.009 109.657
L344.465 122.943
L349.921 136.809
L357.196 156.067
L364.471 176.033
L373.565 201.692
L404.484 289.672
L411.759 309.395
L417.215 323.686
L422.672 337.46
L428.128 350.642
L433.584 363.161
L439.041 374.947
L442.678 382.365
L446.316 389.411
L449.953 396.068
L453.591 402.32
L457.228 408.15
L460.866 413.547
L464.503 418.495
L468.141 422.983
L471.778 427
L475.416 430.537
L479.053 433.585
L482.691 436.136
L486.328 438.184
L488.147 439.018
L489.966 439.725
L489.966 439.725" style="fill:none;stroke:#348abd;"/>
   </g>
   <g id="line2d_38">
    <path clip-path="url(#pfa94b4954c)" d="
M44.3699 255.158
L53.4636 280.847
L60.7387 300.851
L68.0137 320.159
L73.47 334.069
L78.9263 347.406
L84.3825 360.097
L89.8388 372.072
L93.4763 379.626
L97.1139 386.814
L100.751 393.618
L104.389 400.024
L108.026 406.014
L111.664 411.575
L115.301 416.692
L118.939 421.354
L122.576 425.55
L126.214 429.268
L129.852 432.5
L133.489 435.238
L137.127 437.475
L138.945 438.405
L140.764 439.207
L142.583 439.882
L144.402 440.428
L146.22 440.847
L148.039 441.136
L149.858 441.298
L151.677 441.33
L153.495 441.233
L155.314 441.008
L157.133 440.654
L158.952 440.171
L160.77 439.56
L162.589 438.822
L164.408 437.956
L168.045 435.844
L171.683 433.231
L175.32 430.122
L178.958 426.524
L182.596 422.447
L186.233 417.901
L189.871 412.896
L193.508 407.445
L197.146 401.561
L200.783 395.258
L204.421 388.551
L208.058 381.458
L211.696 373.994
L217.152 362.144
L222.608 349.568
L228.064 336.334
L233.521 322.514
L238.977 308.183
L246.252 288.418
L255.346 262.924
L269.896 221.23
L282.627 184.942
L291.721 159.762
L298.996 140.357
L304.452 126.358
L309.909 112.92
L315.365 100.117
L320.821 88.0179
L324.459 80.376
L328.096 73.095
L331.734 66.1928
L335.371 59.6861
L339.009 53.5906
L342.646 47.9212
L346.284 42.6916
L349.921 37.9146
L353.559 33.6017
L357.196 29.7635
L360.834 26.4091
L364.471 23.5469
L368.109 21.1836
L369.928 20.191
L371.746 19.3251
L373.565 18.5866
L375.384 17.9759
L377.203 17.4934
L379.021 17.1392
L380.84 16.9138
L382.659 16.8172
L384.478 16.8494
L386.297 17.0104
L388.115 17.3002
L389.934 17.7186
L391.753 18.2653
L393.572 18.9399
L395.39 19.7422
L397.209 20.6715
L400.847 22.909
L404.484 25.6471
L408.122 28.8792
L411.759 32.5973
L415.397 36.7925
L419.034 41.4545
L422.672 46.5721
L426.309 52.1327
L429.947 58.123
L433.584 64.5284
L437.222 71.3333
L440.859 78.5212
L444.497 86.0746
L449.953 98.0498
L455.409 110.741
L460.866 124.078
L466.322 137.988
L473.597 157.296
L480.872 177.3
L489.966 202.989
L489.966 202.989" style="fill:none;stroke:#7a68a6;"/>
   </g>
   <g id="patch_3">
    <path d="
M45.7275 16.8131
L488.608 16.8131" style="fill:none;stroke:#bcbcbc;"/>
   </g>
   <g id="patch_4">
    <path d="
M488.608 441.334
L488.608 16.8131" style="fill:none;stroke:#bcbcbc;"/>
   </g>
   <g id="patch_5">
    <path d="
M45.7275 441.334
L488.608 441.334" style="fill:none;stroke:#bcbcbc;"/>
   </g>
   <g id="patch_6">
    <path d="
M45.7275 441.334
L45.7275 16.8131" style="fill:none;stroke:#bcbcbc;"/>
   </g>
  </g>
 </g>
 <defs>
  <clipPath id="pfa94b4954c">
   <rect height="424.520625" width="442.880625" x="45.7275" y="16.813125"/>
  </clipPath>
 </defs>
</svg>
