<svg width="16px" height="16px" viewBox="0 0 16 16" version="1.1" xmlns="http://www.w3.org/2000/svg" xmlns:xlink="http://www.w3.org/1999/xlink">
    <title>emblem</title>
    <g id="Page-1" stroke="none" stroke-width="1" fill="none" fill-rule="evenodd">
        <g id="emblem">
            <path d="M8.00012516,16 C12.4182168,16 16,12.418342 16,8 C16,3.58178319 12.418342,0 8,0 C3.58178319,0 0,3.58178319 0,8.00012516 C0,12.4182168 3.58178319,16 8.00012516,16 Z" id="Path" fill="#E03131" fill-rule="nonzero"></path>
            <path d="M8.10575885,1.85397143 C8.8824919,1.85397143 9.56911091,2.14146029 9.97725246,2.57838827 L10.1737512,2.29402838 C9.6978989,1.81692455 8.94845038,1.50928519 8.10575885,1.50928519 C7.26169058,1.50928519 6.51136595,1.81792581 6.03563886,2.29615607 L6.23188723,2.58089144 C6.63965331,2.14258671 7.3275239,1.85409659 8.10575885,1.85409659 L8.10575885,1.85397143 Z M9.41241258,2.95937045 C9.07298299,2.69854034 8.61640514,2.55498365 8.12703578,2.55498365 L8.12716094,2.55498365 C7.63779158,2.55498365 7.18121372,2.69854034 6.84178413,2.95924529 C6.76468656,3.01806974 6.69359658,3.0844037 6.62951548,3.15737105 L6.43051362,2.86875577 C6.81424928,2.4693753 7.43115506,2.21042257 8.12716094,2.21042257 C8.80664591,2.21042257 9.41091068,2.4573601 9.79627341,2.84084545 L9.59839797,3.12795882 C9.54115664,3.06664754 9.47890426,3.01021432 9.41228743,2.95924529 L9.41241258,2.95937045 Z M8.10575885,3.28578357 C8.55382594,3.28578357 8.95933916,3.4478637 9.20940565,3.69167227 L9.40703077,3.40556016 C9.09476056,3.12157574 8.62766939,2.94122248 8.10588401,2.94122248 C7.58259672,2.94122248 7.11437914,3.12245185 6.80210892,3.40768785 L6.99960888,3.6943006 C7.24942505,3.44899013 7.65644018,3.28578357 8.10588401,3.28578357 L8.10575885,3.28578357 Z M5.67518265,8.62015989 L5.67518265,10.9193198 C5.78657363,11.0695098 5.85428433,11.2150691 5.85428433,11.3967991 C5.85428433,11.6230855 5.75353181,11.8260924 5.59520643,11.9615138 L5.39795679,11.7612603 C5.5111688,11.6745379 5.57737193,11.5399095 5.57693331,11.3972997 C5.57693331,11.1459816 5.37630439,10.9420986 5.12886622,10.9420986 C4.88155322,10.9420986 4.68104945,11.1459816 4.68104945,11.3974249 C4.68063493,11.5389688 4.74580213,11.6727233 4.8575228,11.7596333 L4.66039832,11.9598867 C4.50344968,11.8243402 4.40006884,11.6225848 4.40006884,11.3974249 C4.40006884,11.2155697 4.45563917,11.0482329 4.5662792,10.9193198 L4.5662792,7.3491763 C4.58480264,7.21162722 4.68943507,7.10048655 4.82410551,7.10048655 L11.2738935,7.1012375 C11.4088143,7.1012375 11.5151989,7.21162722 11.5337224,7.3491763 L11.5337224,10.9211971 C11.6259641,11.0499851 11.7000579,11.2164458 11.7000579,11.3984261 C11.699753,11.6146116 11.6052504,11.8199308 11.4412303,11.9607628 L11.2431046,11.7605094 C11.3547297,11.6735599 11.4197641,11.5397933 11.4192024,11.398301 C11.4192024,11.1469829 11.2184483,10.943225 10.9710102,10.943225 C10.7236972,10.943225 10.5229431,11.1469829 10.5229431,11.398301 C10.5229431,11.5472395 10.593157,11.6794067 10.7019196,11.7625119 L10.5045448,11.9627654 C10.3396705,11.8212167 10.2450054,11.6145998 10.2454669,11.3972997 C10.2454669,11.2155697 10.3170575,11.069635 10.4248189,10.9195701 L10.4248189,8.63918397 L10.1106713,8.63918397 L10.1106713,13.4666688 L10.2955303,13.5905756 L10.2955303,13.987578 L8.1332937,13.987578 L8.1332937,13.5905756 L8.37334752,13.4714248 L8.37334752,11.9795366 L7.74505233,11.9795366 L7.74555297,13.4666688 L7.96708334,13.5905756 L7.96708334,13.987578 L5.786073,13.987578 L5.786073,13.5905756 L6.00785369,13.4670442 L6.00785369,8.62015989 L5.67518265,8.62015989 L5.67518265,8.62015989 Z M6.43189036,4.06026377 L9.70928832,4.06026377 C9.84420908,4.06026377 9.96285924,4.17265602 9.96285924,4.30970447 L9.96285924,6.48057698 C9.96285924,6.61687448 9.84420908,6.72501134 9.70928832,6.72501134 L6.43201552,6.72501134 C6.29759539,6.72501134 6.19283781,6.61687448 6.19283781,6.48057698 L6.19283781,4.30970447 C6.19283781,4.17265602 6.29759539,4.06026377 6.43189036,4.06026377 L6.43189036,4.06026377 Z M7.23590795,5.65353025 C7.00574164,5.65353025 6.81888015,5.46328948 6.81888015,5.22986905 C6.81888015,4.99557252 7.00574164,4.80583238 7.23590795,4.80583238 C7.46619941,4.80583238 7.65306091,4.99544736 7.65306091,5.22986905 C7.65306091,5.46316432 7.46619941,5.65340509 7.23590795,5.65340509 L7.23590795,5.65353025 Z M8.49299895,5.22986905 C8.49299895,5.46316432 8.67998561,5.65353025 8.91102802,5.65353025 L8.91102802,5.65340509 C9.14144464,5.65340509 9.32818098,5.46316432 9.32818098,5.22986905 C9.32818098,4.99544736 9.14144464,4.80583238 8.91090286,4.80583238 C8.68011077,4.80583238 8.49287379,4.99557252 8.49287379,5.22986905 L8.49299895,5.22986905 Z M7.44955334,5.22999421 C7.45031647,5.34878983 7.35470264,5.44574797 7.23590795,5.44664341 C7.11838421,5.44664341 7.02263803,5.34927017 7.02263803,5.23011937 C7.02263803,5.10946667 7.11850936,5.01284438 7.23590795,5.01284438 C7.29285502,5.01296954 7.34742408,5.03599869 7.38759993,5.07667517 C7.42765062,5.11747681 7.44992882,5.17267166 7.44955334,5.22999421 L7.44955334,5.22999421 Z M8.69750324,5.22999421 C8.69674442,5.34874135 8.79228234,5.4456793 8.91102802,5.44664341 C9.02981629,5.44561181 9.12551004,5.34891193 9.12529921,5.23011937 C9.12606233,5.11097814 9.03016833,5.01373983 8.91102802,5.01284438 C8.79300365,5.01284438 8.69750324,5.10946667 8.69750324,5.22999421 L8.69750324,5.22999421 Z" id="Shape" fill="#FFFFFF"></path>
        </g>
    </g>
</svg>
